<svg width="16" height="18" viewBox="0 0 16 18" fill="none" xmlns="http://www.w3.org/2000/svg">
<g opacity="0.5">
<path d="M11.9828 3.9415C12.6049 3.9415 13.1087 3.40862 13.1087 2.74519V1.49311C13.1087 0.829091 12.6054 0.294434 11.9828 0.294434C11.3602 0.294434 10.8574 0.828498 10.8574 1.49311V2.74579C10.858 3.40862 11.3607 3.9415 11.9828 3.9415Z" fill="white"/>
<path d="M15.9827 2.36767H13.7164V2.97709C13.7164 3.98291 12.9488 4.80241 12.0024 4.80241C11.0548 4.80241 10.2889 3.98291 10.2889 2.97709V2.36767H5.71552V2.97709C5.71552 3.98291 4.94687 4.80241 4.00098 4.80241C3.05508 4.80241 2.28699 3.98351 2.28699 2.97709V2.36767L0 2.3374V17.5748H1.14377H14.8579L16 17.5713L15.9827 2.36767ZM14.8568 16.3613H1.14377V6.62712H14.8579V16.3613H14.8568Z" fill="white"/>
<path d="M3.9842 3.9415C4.60625 3.9415 5.11069 3.40862 5.11069 2.74519V1.49311C5.11069 0.828498 4.60625 0.294434 3.9842 0.294434C3.36214 0.294434 2.85938 0.828498 2.85938 1.49311V2.74579C2.85938 3.40862 3.36159 3.9415 3.9842 3.9415Z" fill="white"/>
<path d="M7.51969 7.93359H5.71875V9.62598H7.51969V7.93359Z" fill="white"/>
<path d="M10.4335 7.93359H8.63086V9.62598H10.4335V7.93359Z" fill="white"/>
<path d="M13.131 7.93359H11.3301V9.62598H13.131V7.93359Z" fill="white"/>
<path d="M7.51969 10.7437H5.71875V12.4349H7.51969V10.7437Z" fill="white"/>
<path d="M10.4335 10.7437H8.63086V12.4349H10.4335V10.7437Z" fill="white"/>
<path d="M13.131 10.7437H11.3301V12.4349H13.131V10.7437Z" fill="white"/>
<path d="M7.51969 13.6099H5.71875V15.3011H7.51969V13.6099Z" fill="white"/>
<path d="M4.6592 10.7437H2.85938V12.4349H4.6592V10.7437Z" fill="white"/>
<path d="M4.6592 13.6099H2.85938V15.3011H4.6592V13.6099Z" fill="white"/>
<path d="M10.4335 13.6099H8.63086V15.3011H10.4335V13.6099Z" fill="white"/>
<path d="M13.131 13.6099H11.3301V15.3011H13.131V13.6099Z" fill="white"/>
</g>
</svg>
