<svg width="16" height="18" viewBox="0 0 16 18" fill="none" xmlns="http://www.w3.org/2000/svg">
<g opacity="0.5">
<path d="M1.08447 10.3115L8.44739 2.50635L9.67463 3.80758L2.31172 11.6128L1.08447 10.3115Z" fill="white"/>
<path d="M0 12.7641L1.80627 11.9434L0.774337 10.8491L0 12.7641Z" fill="white"/>
<path d="M11.5148 1.85574C11.8535 1.49655 11.8535 0.914283 11.5148 0.55495C11.1713 0.207595 10.631 0.207595 10.2876 0.55495L9.67407 1.20534L10.9013 2.50643L11.5148 1.85574Z" fill="white"/>
<path d="M8.85449 2.07291L9.26362 1.63916L10.4906 2.94025L10.0816 3.37384L8.85449 2.07291Z" fill="white"/>
<path d="M14.5533 4.69617H15.9994V1.4502L0.790039 17.5747H15.9994V16.3482H14.5533C14.3935 16.3482 14.264 16.2109 14.264 16.0415C14.264 15.8722 14.3935 15.7349 14.5533 15.7349H15.9994V14.5084H15.1317C14.972 14.5084 14.8425 14.3711 14.8425 14.2017C14.8425 14.0324 14.972 13.8951 15.1317 13.8951H15.9994V12.6686H14.5533C14.3935 12.6686 14.264 12.5313 14.264 12.3619C14.264 12.1926 14.3935 12.0553 14.5533 12.0553H15.9994V10.8288H15.1317C14.972 10.8288 14.8425 10.6915 14.8425 10.5222C14.8425 10.3528 14.972 10.2155 15.1317 10.2155H15.9994V8.98901H14.5533C14.3935 8.98901 14.264 8.85171 14.264 8.68238C14.264 8.51304 14.3935 8.37575 14.5533 8.37575H15.9994V7.14922H15.1317C14.972 7.14922 14.8425 7.01193 14.8425 6.84259C14.8425 6.67325 14.972 6.53596 15.1317 6.53596H15.9994V5.30943H14.5533C14.3935 5.30943 14.264 5.17214 14.264 5.0028C14.264 4.83347 14.3935 4.69617 14.5533 4.69617ZM13.6856 14.815C13.6856 14.9843 13.5561 15.1216 13.3964 15.1216H7.07442C6.95748 15.1216 6.85199 15.0469 6.80722 14.9322C6.76245 14.8177 6.78731 14.6858 6.86992 14.5982L13.1919 7.89618C13.2746 7.80845 13.399 7.78225 13.5071 7.82971C13.6151 7.87717 13.6856 7.98886 13.6856 8.11298V14.815Z" fill="white"/>
</g>
</svg>
